Motion_mu02
version=1
nRows=12
nColumns=43
inDegrees=yes
endheader
time	pelvis_tilt	pelvis_list	pelvis_rotation	pelvis_tx	pelvis_ty	pelvis_tz	hip_flexion_r	hip_adduction_r	hip_rotation_r	knee_angle_r	ankle_angle_r	subtalar_angle_r	mtp_angle_r	hip_flexion_l	hip_adduction_l	hip_rotation_l	knee_angle_l	ankle_angle_l	subtalar_angle_l	mtp_angle_l	lumbar_extension	lumbar_bending	lumbar_rotation	neck_flexion	neck_lateral_bending	neck_rotation	arm_flex_r	arm_add_r	arm_rot_r	elbow_flex_r	pro_sup_r	wrist_flex_r	wrist_dev_r	hand_finger_flex_r	arm_flex_l	arm_add_l	arm_rot_l	elbow_flex_l	pro_sup_l	wrist_flex_l	wrist_dev_l	hand_finger_flex_l
      2.60000000	     -2.57004495	    -31.86237074	    -92.08492139	     -0.03512773	      1.51991717	      0.88556684	     71.30605065	     -1.57501249	      5.64850318	    -75.38677477	    -20.38310338	    -23.13621443	    -21.16279370	     66.40479104	      0.68158823	      4.28749467	    -69.28327929	    -13.83945904	     -8.61834863	     -4.26513522	    -46.36913495	      1.56855370	      4.74523379	    -31.84335298	     -3.32364885	     -3.79643966	   -177.73620469	   -159.87724829	   -222.98021779	    155.63129093	    145.56417087	     10.52304846	    -13.72230751	     74.74450968	      6.95424313	    -16.06127329	    -34.02023224	    152.48204596	    152.90811366	      2.38165900	     -9.90913136	     72.65119186
      2.60250000	     -2.53758655	    -31.59493317	    -92.13276601	     -0.03490568	      1.52322900	      0.88341511	     71.43421350	     -1.49589950	      5.74861175	    -75.29033256	    -21.01595937	    -22.97263249	    -21.20472150	     66.34120026	      0.82661073	      4.48763668	    -68.70024198	    -14.34207201	     -8.65418449	     -4.34587809	    -46.71482847	      1.55566966	      4.68798672	    -31.63879251	     -3.30302237	     -3.81636004	   -178.20386735	   -159.97670256	   -223.14021486	    155.94858791	    145.50060107	     10.30501000	    -13.91793660	     74.78209741	      6.03950521	    -16.00383355	    -34.50312485	    152.85200494	    152.77434189	      1.61697688	    -10.10022361	     72.63960031
      2.60500000	     -2.43535571	    -31.28890992	    -92.17236209	     -0.03468238	      1.52647960	      0.88153141	     71.59400601	     -1.44471348	      5.83198773	    -75.16341134	    -21.51852946	    -23.13872567	    -21.08468661	     66.32257933	      1.01380560	      4.63138185	    -68.17032295	    -14.82010093	     -8.98520368	     -4.43206799	    -46.93223235	      1.50112494	      4.46762906	    -31.83745837	     -3.37204310	     -3.63727427	   -178.52476613	   -160.11684032	   -223.02554814	    156.05680920	    145.37828372	      9.97630652	    -14.37443985	     74.85367060	      4.91522113	    -15.97859427	    -35.13532245	    153.01953577	    152.46736163	     -0.12260186	    -10.67131841	     72.69614279
      2.60750000	     -2.40899519	    -31.07494478	    -92.25861196	     -0.03446106	      1.52991315	      0.87961633	     71.61927874	     -1.35816597	      5.88826476	    -75.02721961	    -21.75577146	    -22.98210130	    -21.08609471	     66.20457152	      1.13085809	      4.81433627	    -67.67766574	    -15.05009194	     -8.89460741	     -4.46556061	    -47.26719577	      1.46275247	      4.49389846	    -31.95293023	     -3.27005289	     -3.66650411	   -179.05857851	   -160.23884882	   -223.32408460	    156.36292015	    145.39712371	      9.88116554	    -14.39967753	     74.86410348	      4.12559836	    -15.86602067	    -35.47852166	    153.38223351	    152.46186747	     -0.31725530	    -10.69599606	     72.78008067
      2.61000000	     -2.39801938	    -30.78934970	    -92.35330813	     -0.03438088	      1.53317521	      0.87758745	     71.75701333	     -1.24198137	      5.93594835	    -74.89523223	    -22.21386838	    -22.75470724	    -21.04986027	     66.17929849	      1.21862780	      5.01797271	    -67.14977301	    -15.53703388	     -8.88777144	     -4.53645932	    -47.60425463	      1.42796348	      4.47207740	    -31.67093155	     -3.25091076	     -3.72347117	   -179.54969531	   -160.34818573	   -223.50006531	    156.71344808	    145.29880664	      9.72009281	    -14.57753838	     74.83747472	      3.22163472	    -15.77243476	    -35.96527532	    153.75704107	    152.34236372	     -1.01374393	    -10.83704772	     72.81337193
      2.61250000	     -2.38811801	    -30.43677765	    -92.48055043	     -0.03428006	      1.53635062	      0.87564351	     71.90780846	     -1.11144009	      5.96893665	    -74.64772689	    -22.56929471	    -22.67021824	    -20.87957517	     66.21471069	      1.29680622	      5.21192655	    -66.61977053	    -15.99865713	     -9.05152168	     -4.59824623	    -47.83193286	      1.38827051	      4.36821147	    -31.58019225	     -3.30499224	     -3.66146038	   -179.91203738	   -160.49402159	   -223.55088537	    156.87687288	    145.10985601	      9.47233867	    -14.88577793	     74.75016867	      2.18255161	    -15.71433555	    -36.51217978	    154.02022562	    152.05777714	     -2.30691433	    -11.16533564	     72.84383773
      2.61500000	     -2.35412712	    -30.22238417	    -92.57974775	     -0.03406762	      1.53976404	      0.87387379	     71.92615585	     -1.01463150	      5.99782342	    -74.48908114	    -22.68194547	    -22.59675691	    -20.84256516	     66.11775118	      1.39058757	      5.36953113	    -66.18357138	    -16.18605154	     -8.99452068	     -4.62135230	    -48.14475838	      1.33823306	      4.40161574	    -31.81836028	     -3.21765171	     -3.65469371	   -180.46872252	   -160.59176248	   -223.79989011	    157.15607381	    145.10270098	      9.36391140	    -14.92861389	     74.73574204	      1.40219183	    -15.57721510	    -36.86617709	    154.32736431	    152.01840048	     -2.58034165	    -11.19998506	     72.91007529
      2.61750000	     -2.43512749	    -29.83300538	    -92.78634075	     -0.03408819	      1.54281554	      0.87200554	     72.10440858	     -0.80548260	      5.95573067	    -74.23421621	    -22.98286772	    -22.42163727	    -20.45711825	     66.23304328	      1.37381976	      5.61387194	    -65.71875769	    -16.65694023	     -9.11494429	     -4.63886134	    -48.35647460	      1.33749780	      4.33502055	    -31.66831750	     -3.33724543	     -3.54516493	   -180.82024556	   -160.67161795	   -223.69551523	    157.30479564	    144.84869473	      8.97771736	    -15.34906338	     74.56907366	      0.26072184	    -15.48153584	    -37.52197690	    154.51148587	    151.53544560	     -4.46413350	    -11.71870861	     73.04654531
      2.62000000	     -2.40268484	    -29.59748562	    -92.88792258	     -0.03393977	      1.54618210	      0.87024281	     72.12749427	     -0.70204997	      5.97211563	    -74.02761653	    -23.06408629	    -22.32745986	    -20.40825300	     66.16204697	      1.45516747	      5.78254942	    -65.28194058	    -16.84461103	     -9.01348037	     -4.65574737	    -48.68022651	      1.27087352	      4.37107330	    -31.69912119	     -3.25325157	     -3.58498952	   -181.38250011	   -160.80421415	   -224.02009925	    157.61775599	    144.87986352	      8.87249469	    -15.35867111	     74.56939920	     -0.52075860	    -15.34248415	    -37.86567802	    154.86150411	    151.52632850	     -4.66460724	    -11.74773972	     73.14754771
      2.62250000	     -2.44693087	    -29.28644783	    -93.05872567	     -0.03402397	      1.54935232	      0.86837565	     72.23666971	     -0.51455337	      5.94188512	    -73.80731415	    -23.19100208	    -22.09236079	    -20.27426690	     66.19706156	      1.44548583	      6.00466078	    -64.84838181	    -17.18888277	     -8.92349007	     -4.67888546	    -49.01079185	      1.22000427	      4.45341944	    -31.35128703	     -3.22542285	     -3.67045223	   -181.94690859	   -160.90903209	   -224.26127689	    158.00185167	    144.80021922	      8.67038544	    -15.46246784	     74.53405490	     -1.39635899	    -15.22016108	    -38.35122573	    155.23028337	    151.36778055	     -5.27013217	    -11.86523472	     73.21220146
      2.62500000	     -2.55829453	    -28.91828801	    -93.26548258	     -0.03398644	      1.55248185	      0.86665929	     72.35900497	     -0.32476384	      5.84047240	    -73.52657328	    -23.22795411	    -21.78253809	    -19.72713328	     66.28594863	      1.44011934	      6.29697405	    -64.43295065	    -17.44505245	     -8.94408657	     -4.61202091	    -49.20952273	      1.24410331	      4.45430191	    -31.40434582	     -3.29822995	     -3.57526053	   -182.34670692	   -160.99822250	   -224.25565431	    158.11351095	    144.50705743	      8.25284063	    -15.74655428	     74.50153801	     -2.45874740	    -15.07250020	    -38.88935611	    155.33023923	    150.80842927	     -6.98902261	    -12.46118592	     73.35440171
      2.62750000	     -2.51697420	    -28.66035233	    -93.36877656	     -0.03386764	      1.55577907	      0.86491317	     72.41527336	     -0.22583334	      5.83767539	    -73.30653517	    -23.28302487	    -21.66112249	    -19.64708924	     66.24154104	      1.53280191	      6.48499543	    -64.00689450	    -17.60619214	     -8.86885802	     -4.61993405	    -49.53941226	      1.15511312	      4.49661111	    -31.33840283	     -3.20572421	     -3.64214169	   -182.92562461	   -161.12480757	   -224.60720618	    158.45521468	    144.53525830	      8.13641795	    -15.75412110	     74.52732114	     -3.25527217	    -14.93958930	    -39.27716160	    155.68532966	    150.80121449	     -7.22351599	    -12.51155111	     73.44527063
